<svg width="411" height="512" viewBox="0 0 411 512" fill="none" xmlns="http://www.w3.org/2000/svg">
<path d="M23.6079 0.141676C29.5733 -0.137063 37.0337 0.0768828 43.1121 0.103309L79.6696 0.231458L206.415 0.198868L324.518 0.308922L358.122 0.233623C367.103 0.154707 376.092 0.217335 385.029 0.226022C395.274 0.236158 406.576 8.10131 409.171 18.1432C411.05 25.4157 410.246 37.0196 410.261 44.9713C410.355 56.0108 410.358 67.0507 410.275 78.0902L410.214 186.617L410.185 281.266C410.156 294.989 410.293 308.727 410.185 322.443C410.087 335.03 401.562 343.175 390.195 346.708L389.815 346.773C385.985 347.414 378.836 347.204 374.676 347.189L350.06 347.149L253.883 347.186L98.2199 347.218L50.6098 347.222C41.8071 347.247 32.9279 347.403 24.127 347.182C13.0198 346.9 2.17469 337.01 0.503706 326.103C-0.0436363 322.53 0.208312 316.796 0.212294 313.053L0.253561 290.012L0.253926 209.14L0.180439 80.9391L0.080527 43.4009C0.074373 37.1448 -0.12871 30.5438 0.238719 24.3149C1.00471 11.3296 10.9438 1.90823 23.6079 0.141676Z" fill="white" fill-opacity="0.05"/>
<path d="M24.5291 1.32223C48.8518 0.942126 74.0212 1.32114 98.4084 1.32331L250.556 1.2748L341.061 1.2824L370.094 1.20023C375.158 1.18503 381.703 0.990991 386.68 1.34647C391.021 1.62196 395.191 3.13874 398.695 5.71617C410.348 14.1526 409.53 23.331 409.461 36.047L409.327 60.4703L409.378 136.255L409.425 263.314L409.526 301.556C409.551 308.586 409.794 315.844 409.421 322.838C408.741 335.667 398.905 344.521 386.713 346.375C380.385 346.69 372.881 346.559 366.481 346.578L325.173 346.556L177.359 346.531L71.8869 346.523L41.5623 346.509C31.2536 346.545 20.3618 348.243 11.7209 341.68C0.183611 332.916 1.09042 324.304 1.15305 311.449L1.18888 288.165L1.22291 201.954L1.23848 78.3147L1.24861 41.878C1.24572 35.2614 1.14798 28.5254 1.43975 21.92C1.58925 18.5414 4.66842 13.3181 6.73434 10.6828C11.3082 4.84881 17.3134 2.19102 24.5291 1.32223Z" fill="url(#paint0_linear_31_1773)"/>
<g filter="url(#filter0_d_31_1773)">
<path d="M281.203 93.9294C282.707 79.0983 288.586 67.397 300.224 57.9731C310.447 49.6388 323.58 45.7437 336.696 47.157C350.361 48.6306 362.861 55.5213 371.404 66.2861C379.618 76.5317 383.343 89.6639 381.728 102.697C380.494 112.79 377.095 120.193 370.984 128.09L370.282 128.931C365.178 134.562 358.673 140.176 351.375 142.705C351.411 144.822 351.367 148.852 351.538 150.831C352.501 154.779 351.415 159.762 352.171 162.835C359.143 163.429 366.524 163.178 373.522 163.36C375.708 163.417 380.646 163.184 382.445 163.517L382.192 163.891C376.487 164.656 356.736 163.191 352.305 164.857C352.222 165.604 352.305 167.778 352.323 168.42C352.584 177.474 352.291 188.275 352.432 197.191C357.902 197.213 364.693 198.032 370.398 197.975C373.63 197.943 379.375 197.44 382.362 198.274C371.303 198.452 363.585 198.328 352.439 199.49C352.117 202.437 352.432 208.159 352.453 211.403C352.497 217.304 352.023 225.742 352.685 231.473C355.48 233.373 378.459 231.874 382.358 232.787L382.318 233.102C375.462 233.091 359.183 232.903 352.96 233.923C352.309 234.582 352.334 236.924 352.374 237.869C352.529 241.714 352.396 246.521 352.472 250.264C352.54 253.536 351.9 264.092 352.421 266.42C359.983 267.995 374.217 266.749 382.3 267.34L382.546 267.799C379.792 268.074 375.129 268.089 372.244 267.944C365.732 267.622 358.788 268.632 352.432 268.498C352.403 271.437 352.037 274.449 352.153 277.338C352.511 286.464 353.21 295.659 346.082 302.71C337.336 311.362 323.461 310.848 314.954 302.128C313.716 300.861 312.004 298.761 312.239 296.937C311.605 295.271 311.262 294.211 310.802 292.491C310.729 292.328 310.273 290.319 310.205 290.026C309.314 288.607 309.354 271.474 309.361 268.498C304.565 268.458 296.945 267.437 292.416 268.632C292.123 269.519 292.959 269.385 292.702 270.123C290.541 276.299 294.182 288.23 290.715 293.364C290.052 295.322 289.484 296.643 288.376 298.417C285.404 303.105 280.694 306.425 275.278 307.648C269.826 308.835 264.124 307.797 259.441 304.763C253.761 301.06 251.422 296.408 250.062 290.012C249.183 288.491 249.749 271.796 249.578 268.407C247.127 268.654 235.641 267.177 232.43 268.726C231.983 268.94 232.045 269.863 231.967 270.547L231.679 270.373L231.559 268.94C230.576 272.541 232.608 286.25 231.241 289.592C230.949 287.999 231.169 284.531 231.076 282.681C230.716 275.481 231.776 264.711 230.968 257.826L231.34 257.87C231.004 255.057 231.213 247.868 231.105 244.382L231.24 233.344L231.22 232.07C231.412 220.848 231.006 209.577 231.246 198.219L231.109 197.977L230.817 196.866L230.27 197.374L229.565 197.39L229.429 197.054C230.285 196.089 231.707 195.021 231.907 194.039C230.806 193.557 231.036 193.745 229.607 194.002L229.67 193.023L230.501 193.2C235.755 190.607 240.359 187.775 245.39 184.787C245.934 184.158 249.321 181.939 250.226 181.321L250.229 164.115L250.268 163.319C249.979 155.594 251.524 149.493 257.717 144.344C261.962 140.788 267.467 139.102 272.975 139.672C279.192 140.297 283.608 143.241 287.481 147.97C291.511 143.867 295.384 139.613 299.091 135.216C298.729 134.905 298.367 134.59 298.012 134.272C287.155 124.624 282.046 113.579 281.193 99.17C281.291 97.8719 281.206 95.3216 281.203 93.9294Z" fill="url(#paint1_linear_31_1773)"/>
</g>
<path d="M250.268 163.32C249.979 155.594 251.524 149.493 257.717 144.344C261.962 140.788 267.467 139.103 272.975 139.672C279.192 140.297 283.608 143.241 287.481 147.97L286.859 148.572L286.225 149.585L286.485 150.487C285.599 151.512 285.567 151.248 285.331 152.403L286.232 154.181C287.089 153.228 287.964 152.507 288.925 151.668L289.571 151.167C290.729 154.338 290.841 155.522 291.507 158.75C291.453 160.443 291.359 162.274 291.402 163.952C291.424 175.071 291.58 186.529 291.362 197.623L291.395 198.575C291.417 203.083 291.236 209.866 291.5 214.18C291.381 220.595 291.363 227.009 291.446 233.42L291.431 267.039C291.435 270.811 291.638 287.948 291.142 290.551L290.715 293.364C290.052 295.322 289.484 296.643 288.376 298.417C285.404 303.105 280.694 306.425 275.278 307.648C269.826 308.835 264.124 307.797 259.441 304.763C253.761 301.06 251.422 296.408 250.062 290.012C249.183 288.491 249.749 271.796 249.578 268.407C247.127 268.654 235.641 267.177 232.43 268.726C231.983 268.94 232.045 269.863 231.967 270.547L231.679 270.373L231.559 268.94C230.576 272.541 232.608 286.25 231.241 289.592C230.949 287.999 231.169 284.531 231.076 282.681C230.716 275.481 231.776 264.711 230.968 257.826L231.34 257.87C231.004 255.057 231.213 247.868 231.105 244.382L231.24 233.344L231.22 232.07C231.412 220.848 231.006 209.577 231.246 198.219L231.109 197.977L230.817 196.866L230.27 197.374L229.565 197.391L229.429 197.054C230.285 196.09 231.707 195.021 231.907 194.04C230.806 193.557 231.036 193.745 229.607 194.002L229.67 193.023L230.501 193.2C235.755 190.607 240.359 187.775 245.39 184.787C245.934 184.158 249.321 181.939 250.226 181.321L250.229 164.115L250.268 163.32Z" fill="url(#paint2_linear_31_1773)"/>
<path d="M230.501 193.2C235.756 190.607 240.359 187.776 245.39 184.787C244.621 186.027 244.191 186.257 244.208 187.55C245.439 188.069 245.772 187.759 247.314 187.421C248.099 187.129 248.984 186.362 249.694 185.832C250.505 187.638 250.232 195.332 250.209 197.681L250.13 233.21C250.12 236.693 249.858 247.354 250.194 250.456C250.018 259.513 249.724 274.192 250.183 283.007L250.062 290.012C249.183 288.491 249.749 271.796 249.578 268.408C247.127 268.654 235.641 267.177 232.43 268.726C231.983 268.94 232.045 269.863 231.967 270.547L231.679 270.373L231.559 268.94C230.576 272.542 232.608 286.25 231.241 289.592C230.949 287.999 231.169 284.531 231.076 282.681C230.716 275.481 231.776 264.712 230.968 257.826L231.34 257.87C231.004 255.057 231.213 247.868 231.105 244.382L231.24 233.344L231.22 232.07C231.412 220.848 231.006 209.577 231.246 198.219L231.109 197.977L230.817 196.866L230.27 197.374L229.565 197.391L229.429 197.054C230.285 196.09 231.707 195.021 231.907 194.04C230.806 193.557 231.036 193.745 229.607 194.002L229.67 193.023L230.501 193.2Z" fill="#181B1D"/>
<path d="M231.246 198.219C236.991 199.188 243.87 198.378 249.894 198.507C249.743 209.765 249.675 221.022 249.691 232.28C242.066 232.62 238.513 232.356 231.22 232.07C231.412 220.848 231.006 209.577 231.246 198.219Z" fill="#181B1D"/>
<path d="M230.501 193.2C235.756 190.607 240.359 187.776 245.39 184.787C244.621 186.027 244.191 186.257 244.208 187.55C245.439 188.069 245.772 187.759 247.314 187.421C248.099 187.129 248.984 186.362 249.694 185.832C250.505 187.638 250.232 195.332 250.209 197.681C243.72 197.783 237.57 197.496 231.109 197.977L230.817 196.866L230.27 197.374L229.565 197.391L229.429 197.054C230.285 196.09 231.707 195.021 231.907 194.04C230.806 193.557 231.036 193.745 229.607 194.002L229.67 193.023L230.501 193.2Z" fill="#181B1D"/>
<path d="M231.108 197.977C237.57 197.496 243.72 197.783 250.209 197.681L250.129 233.21C250.119 236.693 249.858 247.354 250.194 250.456C250.018 259.513 249.724 274.192 250.183 283.007L250.061 290.012C249.182 288.491 249.749 271.796 249.577 268.408C247.127 268.654 235.641 267.177 232.43 268.726C231.982 268.94 232.045 269.863 231.967 270.547L231.678 270.373L231.559 268.94C230.576 272.542 232.608 286.25 231.24 289.592C230.949 287.999 231.168 284.531 231.076 282.681C230.715 275.481 231.775 264.712 230.968 257.826L231.34 257.87C231.604 259.687 231.501 264.979 231.502 267.09C237.564 267.227 243.629 267.213 249.69 267.05L249.67 233.348C243.289 233.062 237.591 233.178 231.24 233.344L231.22 232.07C238.513 232.356 242.066 232.62 249.691 232.28C249.676 221.022 249.743 209.765 249.895 198.507C243.87 198.378 236.991 199.188 231.246 198.219L231.108 197.977Z" fill="#46524E"/>
<path d="M250.268 163.32C249.979 155.594 251.523 149.493 257.717 144.344C261.962 140.788 267.467 139.103 272.975 139.672C279.191 140.297 283.608 143.241 287.481 147.97L286.859 148.572L286.224 149.585C280.361 155.516 274.58 161.475 268.334 167.002C267.331 167.89 266.319 168.771 265.371 169.717L258.171 175.611L255.189 177.912L252.954 179.501L251.111 180.419L250.226 181.321L250.229 164.115L250.268 163.32Z" fill="url(#paint3_linear_31_1773)"/>
<path d="M250.268 163.32C249.979 155.594 251.523 149.493 257.717 144.344C261.962 140.788 267.467 139.103 272.975 139.672C279.191 140.297 283.608 143.241 287.481 147.97L286.859 148.572C282.344 143.723 278.147 140.698 271.18 140.503C266.03 140.374 261.046 142.329 257.356 145.924C247.948 154.923 251.867 168.574 251.111 180.419L250.226 181.321L250.229 164.115L250.268 163.32Z" fill="#9AAEA1"/>
<path d="M251.072 286.888C251.35 286.982 256.646 289.23 255.921 289.309C261.21 288.719 266.379 288.158 271.647 287.384C274.962 286.898 274.79 286.935 277.434 284.52C277.918 284.078 281.108 286.2 282.42 285.95C282.988 284.976 282.984 284.929 283.772 284.154C284.934 284.361 285.484 284.6 286.513 284.158C286.674 283.235 286.69 282.735 287.18 281.921C291.909 279.944 289.773 275.021 291.037 270.942C291.105 277.146 290.852 284.502 291.142 290.551L290.714 293.364C290.052 295.322 289.484 296.643 288.376 298.417C285.404 303.105 280.694 306.425 275.278 307.648C269.826 308.836 264.124 307.797 259.441 304.763C253.76 301.06 251.422 296.408 250.062 290.012L250.183 283.007C250.538 281.758 250.591 279.445 250.746 277.964C251.043 280.857 251.025 283.963 251.072 286.888Z" fill="#D6F5B5"/>
<path d="M288.925 151.667C290.128 156.019 290.681 158.864 290.327 163.437C290.185 162.672 289.961 161.995 290.2 161.283L289.722 160.697C284.782 166.905 279.597 169.459 271.899 171.242C270.215 171.632 268.812 172.667 267.117 172.687L268.503 171.343C273.548 167.322 281.597 159.025 286.232 154.18C287.088 153.228 287.963 152.507 288.925 151.667Z" fill="#73997B"/>
<path d="M289.57 151.167C290.729 154.338 290.841 155.522 291.507 158.75C291.453 160.444 291.359 162.274 291.402 163.952C291.424 175.071 291.579 186.53 291.362 197.623L291.395 198.575C291.416 203.083 291.235 209.866 291.5 214.18C291.38 220.595 291.362 227.009 291.445 233.42L291.431 267.039C291.435 270.811 291.637 287.948 291.141 290.551C290.852 284.502 291.105 277.146 291.036 270.942C291.123 269.385 291.109 267.604 291.087 266.022C290.881 250.478 291.655 234.821 290.432 219.321C290.32 217.888 290.189 216.317 290.2 214.892C290.323 197.763 290.656 180.565 290.327 163.437C290.682 158.865 290.128 156.02 288.925 151.668L289.57 151.167Z" fill="#9BBEA0"/>
<path d="M249.693 185.832L250.967 185.025C251.323 194.269 251.24 204.194 251.28 213.429C251.329 224.501 251.918 235.56 250.433 246.521C250.306 247.462 250.425 249.841 250.194 250.456C249.858 247.354 250.119 236.693 250.13 233.21L250.209 197.681C250.232 195.332 250.505 187.638 249.693 185.832Z" fill="#9BBEA0"/>
<path d="M320.167 103.566C324.431 102.018 327.247 105.328 329.72 101.001C330.675 105.892 333.825 106.782 338.314 106.712L338.451 107.133C337.043 107.341 336.261 107.255 334.871 107.17C335.066 107.638 338.614 110.445 339.182 110.835C351.823 119.488 348.837 128.673 350.278 141.376L349.764 141.819L350.734 142.153C338.281 146.341 328.351 147.37 315.457 143.179C312.434 142.197 305.694 139.727 304.275 136.799C303.547 135.305 301.925 136.798 299.667 132.761C300.514 130.845 307.352 121.359 308.861 119.253L308.532 119.524C310.907 116.421 314.233 113.173 316.992 110.365C318.204 109.132 319.135 109.6 319.66 107.614L319.58 107.482C317.832 106.699 315.345 107.14 313.227 106.548C316.326 106.414 326.103 107.718 326.751 104.502C325.401 103.096 322.751 103.742 320.167 103.566Z" fill="#73997B"/>
<path d="M351.538 150.831C352.5 154.779 351.414 159.763 352.171 162.835C359.143 163.429 366.524 163.178 373.522 163.36C375.708 163.417 380.646 163.184 382.445 163.517L382.192 163.891C376.486 164.656 356.736 163.191 352.305 164.857C352.222 165.604 352.305 167.778 352.323 168.42C352.584 177.474 352.29 188.275 352.432 197.191C357.901 197.213 364.693 198.032 370.398 197.975C373.63 197.943 379.375 197.44 382.362 198.274C371.303 198.452 363.585 198.328 352.439 199.49C352.117 202.437 352.432 208.159 352.453 211.403C352.497 217.304 352.023 225.742 352.685 231.473C355.48 233.373 378.459 231.875 382.358 232.787L382.318 233.102C375.462 233.091 359.183 232.903 352.96 233.923C352.309 234.582 352.334 236.924 352.374 237.869C352.529 241.714 352.395 246.521 352.471 250.264C352.54 253.537 351.899 264.092 352.421 266.42C359.983 267.995 374.217 266.75 382.3 267.34L382.546 267.799C379.792 268.074 375.129 268.089 372.244 267.944C365.731 267.622 358.788 268.632 352.432 268.498C352.403 271.437 352.037 274.449 352.153 277.338C352.511 286.464 353.21 295.659 346.082 302.71C337.336 311.362 323.461 310.848 314.954 302.128C313.716 300.861 312.004 298.761 312.239 296.937C311.605 295.271 311.261 294.211 310.802 292.491C311.721 293.241 312.007 293.954 313.14 294.794C313.734 294.327 314.205 293.899 314.762 293.4C317.126 294.276 317.267 293.041 319.464 293.765C322.737 294.844 326.567 293.979 330.201 294.526C331.258 294.685 336.801 294.106 337.879 293.346C338.154 292.951 337.365 292.035 338.408 291.05L339.226 291.894C342.726 288.672 347.599 288.321 349.387 285.378L349.318 285.827C350.032 284.962 350.64 280.553 351.02 279.919C351.161 282.25 350.737 284.31 351.385 286.634L351.414 223.777C352.113 200.127 351.179 174.759 351.538 150.831Z" fill="#D6F5B5"/>
<path d="M351.537 150.831C352.5 154.779 351.414 159.763 352.171 162.835C359.143 163.429 366.524 163.178 373.521 163.36C375.708 163.417 380.646 163.184 382.445 163.517L382.191 163.891C376.486 164.656 356.736 163.191 352.305 164.857C352.221 165.604 352.305 167.778 352.323 168.42C352.583 177.474 352.29 188.275 352.431 197.191C357.901 197.213 364.692 198.032 370.397 197.975C373.63 197.943 379.375 197.44 382.362 198.274C371.302 198.452 363.585 198.328 352.439 199.49C352.117 202.437 352.431 208.159 352.453 211.403C352.497 217.304 352.022 225.742 352.685 231.473C355.479 233.373 378.459 231.875 382.358 232.787L382.318 233.102C375.462 233.091 359.183 232.903 352.96 233.923C352.308 234.582 352.334 236.924 352.374 237.869C352.529 241.714 352.395 246.521 352.471 250.264C352.54 253.537 351.899 264.092 352.421 266.42C359.983 267.995 374.217 266.75 382.3 267.34L382.546 267.799C379.791 268.074 375.129 268.089 372.244 267.944C365.731 267.622 358.788 268.632 352.431 268.498C352.402 271.437 352.037 274.449 352.153 277.338C352.511 286.464 353.21 295.659 346.082 302.71C337.336 311.362 323.461 310.848 314.954 302.128C313.716 300.861 312.003 298.761 312.239 296.937C316.691 303.67 322.443 308.148 330.878 308.104C336.489 308.068 341.85 305.791 345.774 301.784C349.811 297.588 351.508 292.372 351.385 286.634L351.414 223.777C352.113 200.127 351.179 174.759 351.537 150.831Z" fill="#373B3F"/>
<path d="M291.402 163.952L309.889 164.015C309.864 175.131 309.669 186.465 309.781 197.557C304.275 197.726 296.832 197.969 291.362 197.623C291.58 186.53 291.424 175.071 291.402 163.952Z" fill="#181B1D"/>
<path d="M291.446 233.42C297.23 233.037 303.953 233.199 309.788 233.312L309.734 267.054C303.685 267.202 297.477 267.329 291.431 267.039L291.446 233.42Z" fill="#181B1D"/>
<path d="M291.395 198.575C297.534 198.338 303.685 198.327 309.828 198.544L309.752 232.32C303.79 232.515 297.824 232.508 291.862 232.298C291.862 229.46 292.028 216.194 291.5 214.18C291.236 209.866 291.417 203.083 291.395 198.575Z" fill="#181B1D"/>
<path d="M311.084 142.891C312.583 142.872 316.796 144.833 318.845 145.317C331.066 148.206 339.298 147.097 350.73 142.999C350.256 145.807 350.357 149.546 350.375 152.462C349.394 155.077 346.839 155.862 344.395 156.714L343.693 155.877C339.609 159.437 333.553 158.67 328.692 159.47C325.709 159.962 322.668 159.949 319.942 160.109C317.643 160.244 315.153 161.008 312.648 160.94C312.778 160.944 312.242 161.249 311.667 161.218C310.396 156.354 312.228 147.766 311.084 142.891Z" fill="#73997B"/>
<path d="M299.091 135.217C300.695 135.358 301.209 135.84 302.211 137.102C303.562 139.023 307.761 140.982 309.976 142.129C310.179 148.914 309.907 156.453 309.929 163.341L291.659 163.387C291.695 162.02 291.873 159.992 291.507 158.75C290.841 155.522 290.729 154.338 289.57 151.167L288.925 151.668C287.964 152.507 287.088 153.228 286.232 154.181L285.331 152.403C285.567 151.248 285.598 151.512 286.484 150.487L286.224 149.585L286.859 148.573L287.481 147.97C291.511 143.867 295.384 139.613 299.091 135.217Z" fill="#181B1D"/>
<path d="M28 234.299C29.7405 233.863 31.7963 234.029 33.6027 234.041C70.3191 234.296 107.044 233.987 143.761 234.203C144.797 234.209 145.075 234.235 146.034 234.59C142.587 235.344 134.192 234.981 130.328 234.95L108.078 234.892L57.1948 234.877C48.5731 234.892 39.9297 234.942 31.3083 234.929C29.6623 234.927 29.2945 235.07 28 234.299Z" fill="#373B3F"/>
<path d="M309.976 142.129L310.28 142.507L310.201 241.33L310.23 273.993C310.23 278.507 310.451 285.7 310.204 290.026C309.314 288.607 309.354 271.474 309.361 268.498C304.564 268.458 296.944 267.437 292.416 268.632C292.123 269.519 292.959 269.385 292.702 270.123C290.541 276.299 294.182 288.231 290.714 293.364L291.142 290.551C291.637 287.948 291.435 270.811 291.431 267.039C297.476 267.329 303.685 267.202 309.734 267.054L309.788 233.312C303.953 233.2 297.23 233.037 291.446 233.42C291.362 227.009 291.38 220.595 291.5 214.18C292.028 216.194 291.862 229.46 291.862 232.298C297.824 232.508 303.79 232.515 309.752 232.32L309.828 198.544C303.685 198.327 297.534 198.338 291.395 198.575L291.362 197.623C296.832 197.969 304.275 197.726 309.781 197.557C309.669 186.465 309.864 175.131 309.889 164.015L291.402 163.952C291.359 162.274 291.453 160.444 291.507 158.75C291.873 159.992 291.695 162.02 291.659 163.387L309.929 163.341C309.908 156.453 310.179 148.914 309.976 142.129Z" fill="#46524E"/>
<g filter="url(#filter1_d_31_1773)">
<path d="M190.065 198.936C189.775 193.027 190.769 188.212 194.575 183.461C197.959 179.188 202.914 176.449 208.332 175.853C213.732 175.302 219.132 176.901 223.361 180.304C227.301 183.511 229.999 188.116 230.5 193.2L229.669 193.023L229.607 194.002C231.036 193.745 230.805 193.557 231.907 194.039C231.706 195.021 230.284 196.089 229.429 197.054L229.564 197.39L230.27 197.374L230.817 196.866L231.108 197.977L231.246 198.219C231.006 209.577 231.412 220.848 231.22 232.07L231.239 233.344L231.104 244.382C231.213 247.868 231.003 255.057 231.339 257.87L230.968 257.826C231.775 264.711 230.715 275.481 231.075 282.681C231.168 284.531 230.949 287.999 231.24 289.592C229.702 299.992 221.63 307.988 210.911 308.162C205.244 308.263 199.781 306.044 195.79 302.023C187.559 293.773 189.699 279.647 189.796 268.089C183.579 268.06 177.361 268.067 171.143 268.111C171.151 272.031 171.396 286.395 170.948 289.443C170.827 294.196 168.429 298.971 165.012 302.229C160.894 306.149 155.388 308.278 149.703 308.14C144.236 307.985 139.054 305.672 135.289 301.704C131.702 297.896 130.526 294.24 129.715 289.24C130.027 287.735 129.833 277.53 129.976 274.938C129.33 263.162 130.45 248.993 129.861 236.91L130.151 233.851C130.127 233.829 130.108 233.8 130.081 233.786C127.893 232.356 112.001 233.008 108.917 233.76C108.136 233.952 107.44 234.05 106.635 234.093L106.328 234.108L105.538 234.086C104.602 233.254 104.546 233.261 103.268 233.069L103.389 232.729C103.516 231.538 103.724 230.973 104.196 229.876L104.324 229.587L103.84 229.254L102.172 229.59C111.086 219.892 135.755 199.304 149.549 197.994C157.839 194.929 173.142 196.664 181.639 198.11C183.371 198.405 188.672 199.354 190.065 198.936Z" fill="url(#paint4_linear_31_1773)"/>
</g>
<g filter="url(#filter2_d_31_1773)">
<path d="M230.817 196.866L231.108 197.977L231.246 198.219C231.006 209.577 231.412 220.848 231.22 232.07L231.24 233.344L231.104 244.382C231.213 247.868 231.004 255.057 231.34 257.87L230.968 257.826C231.775 264.712 230.716 275.481 231.076 282.681C231.168 284.531 230.949 287.999 231.24 289.592C229.703 299.992 221.63 307.989 210.911 308.162C205.244 308.264 199.781 306.045 195.79 302.023C187.56 293.773 189.7 279.648 189.797 268.089L189.831 267.18L189.817 262.228C189.996 252.86 189.94 242.619 189.819 233.247L190.016 232.237C189.421 227.751 190.79 203.979 189.023 202.46L190.73 202.597C203.518 205.238 217.63 201.639 229.564 197.391L230.27 197.374L230.817 196.866Z" fill="url(#paint5_linear_31_1773)"/>
</g>
<path d="M190.415 262.138C191.133 266.091 190.666 267.984 191.069 271.626C193.744 273.356 193.693 271.043 197.164 273.794C202.165 271.286 203.466 271.579 208.966 271.007C209.607 270.381 209.651 270.276 210.472 269.859L211.553 270.967C213.432 270.732 215.498 269.338 217.13 269.103C225.228 267.944 227.124 270.308 229.933 261.023L229.732 262.21C230.582 260.288 230.149 259.278 230.968 257.826C231.775 264.712 230.715 275.481 231.076 282.681C231.168 284.531 230.949 287.999 231.24 289.592C229.703 299.992 221.63 307.989 210.911 308.162C205.244 308.264 199.781 306.045 195.79 302.023C187.559 293.773 189.7 279.648 189.797 268.089L189.831 267.18L189.817 262.228L190.415 262.138Z" fill="url(#paint6_linear_31_1773)"/>
<path d="M189.023 202.46L190.73 202.596C190.888 217.007 190.865 231.418 190.659 245.826C190.567 251.097 190.737 256.957 190.415 262.138L189.817 262.228C189.996 252.86 189.94 242.619 189.819 233.247L190.016 232.237C189.421 227.751 190.79 203.979 189.023 202.46Z" fill="#9BBEA0"/>
<path d="M230.817 196.866L231.108 197.977L231.246 198.219C231.006 209.577 231.412 220.848 231.22 232.07L231.24 233.344L231.104 244.382L230.606 243.944C230.208 240.827 230.385 229.265 230.445 225.695C230.602 216.238 230.18 206.738 230.27 197.374L230.817 196.866Z" fill="#9BBEA0"/>
<path d="M190.065 198.936C189.775 193.027 190.769 188.212 194.575 183.461C197.959 179.188 202.914 176.449 208.332 175.853C213.732 175.302 219.132 176.901 223.361 180.304C227.301 183.511 229.999 188.116 230.5 193.2L229.669 193.023L229.607 194.002C231.036 193.745 230.805 193.557 231.907 194.039C231.706 195.021 230.284 196.089 229.429 197.054L229.564 197.39C217.63 201.639 203.518 205.237 190.73 202.596L189.023 202.46C190.79 203.979 189.42 227.751 190.015 232.236L189.819 233.246C183.521 233.189 176.908 233.036 170.638 233.131L170.327 232.522C170.29 231.516 169.569 229.677 169.13 228.743C166.831 223.766 162.61 219.939 157.434 218.136C152.305 216.295 146.653 216.587 141.741 218.946C135.77 221.815 132.734 226.054 130.609 232.103L130.151 233.851C130.127 233.829 130.108 233.8 130.081 233.786C127.893 232.356 112.001 233.008 108.917 233.76C108.136 233.952 107.44 234.05 106.635 234.093L106.328 234.108L105.538 234.086C104.602 233.254 104.546 233.261 103.268 233.069L103.389 232.729C103.516 231.538 103.724 230.973 104.196 229.876L104.324 229.587L103.84 229.254L102.172 229.59C111.086 219.892 135.755 199.304 149.549 197.994C157.839 194.929 173.142 196.664 181.639 198.11C183.371 198.405 188.672 199.354 190.065 198.936Z" fill="#181B1D"/>
<g filter="url(#filter3_d_31_1773)">
<path d="M190.065 198.936C189.775 193.027 190.769 188.212 194.575 183.461C197.959 179.188 202.914 176.449 208.332 175.853C213.732 175.302 219.132 176.901 223.361 180.304C227.301 183.511 229.998 188.116 230.5 193.2L229.669 193.023L229.607 194.002C227.828 194.073 223.005 196.089 221.028 196.847C216.08 198.745 194.071 201.549 190.347 198.883L190.065 198.936Z" fill="url(#paint7_linear_31_1773)"/>
</g>
<path d="M190.065 198.936C189.775 193.027 190.769 188.212 194.575 183.461C197.959 179.188 202.914 176.449 208.332 175.853C213.732 175.302 219.132 176.901 223.361 180.304C227.301 183.511 229.998 188.116 230.5 193.2L229.669 193.023C228.781 187.779 225.826 183.111 221.466 180.065C212.609 173.793 200.461 176.292 194.532 185.228C190.973 190.592 191.434 193.073 190.347 198.883L190.065 198.936Z" fill="#9AAEA1"/>
<path d="M170.327 232.523C175.889 232.457 184.781 231.936 190.015 232.237L189.819 233.247C183.521 233.189 176.908 233.037 170.638 233.131L170.327 232.523Z" fill="#46524E"/>
<path d="M130.687 241.073C130.957 244.693 130.304 258.876 131.622 260.425C132.642 260.762 134.601 261.131 135.669 260.972C144.337 259.683 164.334 259.343 170.327 253.106L170.753 275.749C170.785 279.054 170.601 286.457 170.948 289.443C170.828 294.196 168.429 298.971 165.012 302.229C160.894 306.15 155.388 308.278 149.703 308.141C144.237 307.985 139.054 305.672 135.289 301.704C131.702 297.896 130.526 294.24 129.715 289.241C130.027 287.735 129.833 277.53 129.976 274.938C131.412 264.538 129.801 251.513 130.687 241.073Z" fill="url(#paint8_linear_31_1773)"/>
<path d="M170.638 233.131C176.908 233.037 183.521 233.189 189.819 233.247C189.939 242.619 189.996 252.86 189.817 262.228L189.831 267.18L189.796 268.089C183.578 268.06 177.36 268.067 171.143 268.111C171.01 266.579 171.114 265.49 171.207 263.969C170.974 256.429 171.828 239.603 170.638 233.131Z" fill="#181B1D"/>
<path d="M171.208 263.969C171.341 265.153 171.238 266.228 171.881 267.007C177.311 267.861 184.613 266.768 189.831 267.18L189.797 268.089C183.579 268.06 177.361 268.067 171.143 268.111C171.01 266.58 171.114 265.49 171.208 263.969Z" fill="#46524E"/>
<g filter="url(#filter4_d_31_1773)">
<path d="M130.609 232.103C132.735 226.054 135.771 221.815 141.742 218.946C146.653 216.587 152.306 216.295 157.434 218.136C162.61 219.939 166.832 223.766 169.13 228.743C169.569 229.677 170.291 231.516 170.328 232.523L170.638 233.131C171.828 239.603 170.975 256.429 171.208 263.969C171.114 265.49 171.011 266.579 171.143 268.111C171.152 272.031 171.396 286.395 170.948 289.443C170.602 286.457 170.785 279.054 170.753 275.749L170.327 253.106C170.411 242.401 172.208 231.494 164.25 223.491C160.656 219.82 155.721 217.771 150.584 217.817C145.308 217.832 140.261 219.972 136.582 223.755C131.338 229.051 130.633 234.144 130.687 241.073C129.801 251.513 131.412 264.538 129.977 274.938C129.331 263.162 130.45 248.993 129.861 236.91L130.151 233.851L130.609 232.103Z" fill="#9AAEA1"/>
</g>
<g filter="url(#filter5_d_31_1773)">
<path d="M104.324 229.587L104.195 229.877C103.724 230.973 103.627 231.309 103.5 232.5L103 233L102.438 233.707L101 235C103.533 235.68 106.658 238.698 107.92 240.885C109.559 243.661 110.616 246.742 111.027 249.938C110.509 258.38 111.25 267.416 110.849 275.681C110.886 278.949 110.708 287.206 110.998 289.939C110.087 294.732 108.563 298.476 105.053 301.998C101.706 305.394 97.3131 307.515 92.6279 308.052C91.7601 308.151 90.8821 308.196 89.999 308.184L89.4834 308.17C86.7351 308.057 84.0611 307.401 81.6055 306.266C81.452 306.196 81.2992 306.123 81.1475 306.049C80.9958 305.974 80.8451 305.897 80.6953 305.819C80.5454 305.741 80.3961 305.661 80.248 305.579C78.4719 304.595 76.834 303.348 75.3945 301.864C75.0841 301.543 74.7819 301.207 74.4902 300.859C74.1012 300.396 73.7299 299.91 73.3789 299.406C73.291 299.28 73.2044 299.153 73.1191 299.024C72.9514 298.772 72.7891 298.515 72.6318 298.254C71.0333 295.603 69.9935 292.555 69.8438 289.536C69.8288 289.234 69.8221 288.933 69.8252 288.633C69.7807 287.868 69.7489 287.068 69.7266 286.241C69.6931 285.001 69.6818 283.701 69.6836 282.367C69.6902 277.479 69.8751 272.144 69.8057 267.694C66.7327 270.999 60.412 278.247 57.3125 280.998C57.0671 281.657 56.9232 281.65 56.3594 282.196C55.0645 282.515 55.679 282.543 54.4453 282.156C52.8878 279.832 55.5463 277.816 57.123 276.245L64.5508 268.118L65.5205 267.235C66.8468 265.809 68.2944 264.151 69.8125 262.96L69.8018 262.482C69.9596 256.133 68.9856 249.16 71.584 243.321C73.8746 238.192 78.1157 234.181 83.3691 232.186C88.7849 230.141 93.5275 230.622 98.6982 232.935C99.4592 232.077 101.273 230.449 102.173 229.591L103.84 229.254L104.324 229.587Z" fill="url(#paint9_linear_31_1773)"/>
</g>
<path d="M69.8055 267.694L70.6056 266.771C70.7884 269.186 70.7619 271.608 70.9397 273.892C70.6544 277.693 70.9719 285.465 69.8258 288.632C69.47 282.511 69.9065 274.167 69.8055 267.694Z" fill="#A2EEB3"/>
<path d="M69.8018 262.482C69.9596 256.132 68.9858 249.16 71.5843 243.321C73.875 238.192 78.1158 234.181 83.3695 232.186C88.7854 230.141 93.5275 230.622 98.6983 232.935L98.1572 233.312C97.3383 234.141 94.5915 236.816 94.0839 237.598C91.5648 239.886 89.4971 242.17 87.1864 244.664C81.3981 250.25 76.6157 255.969 71.0775 261.468L69.8018 262.482Z" fill="url(#paint10_linear_31_1773)"/>
<path d="M69.8018 262.482C69.9596 256.132 68.9858 249.16 71.5843 243.321C73.875 238.192 78.1158 234.181 83.3695 232.186C88.7854 230.141 93.5275 230.622 98.6983 232.935L98.1572 233.312C85.8054 229.848 75.6014 233.63 71.3395 246.811C70.5739 249.178 70.0961 259.68 71.0775 261.468L69.8018 262.482Z" fill="#9AAEA1"/>
<path d="M299.091 135.216C300.694 135.358 301.208 135.84 302.211 137.102C298.497 141.606 292.814 146.952 289.57 151.168L288.925 151.668C287.964 152.507 287.089 153.228 286.232 154.18C281.598 159.024 273.549 167.322 268.504 171.342L267.117 172.686C264.719 174.465 261.55 177.34 259.278 178.799C258.723 179.271 258.107 179.874 257.482 180.19L255.552 181.729C254.035 182.788 252.409 183.882 250.967 185.025L249.693 185.833C248.984 186.362 248.099 187.13 247.313 187.422C246.928 187.506 246.618 187.588 246.351 187.657C246.618 187.588 246.929 187.506 247.314 187.422C242.099 191.775 236.311 193.723 230.817 196.866L230.271 197.375L229.564 197.39C217.63 201.639 203.517 205.237 190.729 202.596L189.023 202.461C186.899 202.49 179.453 201.392 177.1 200.992C167.625 199.382 161.249 199.423 152.214 200.886L150.369 201.198C134.774 205.674 126.236 212.722 113.87 223.342C110.532 226.206 106.726 230.05 103.39 232.729L103 233L102.438 233.707C101.563 234.604 97.0458 239.314 96.2549 239.77C94.318 241.902 92.3271 243.983 90.2842 246.01C84.8054 251.524 78.1054 258.471 72.8955 264.292C72.2584 264.969 71.1452 266.083 70.6055 266.771L69.8057 267.694C66.7327 270.999 60.412 278.246 57.3125 280.998C57.0671 281.656 56.9232 281.649 56.3594 282.196C55.0645 282.514 55.679 282.543 54.4453 282.156C52.8879 279.832 55.5463 277.816 57.123 276.245L64.5518 268.118L65.5215 267.235C66.8477 265.809 68.2944 264.151 69.8125 262.96L69.8018 262.482L71.0781 261.468C76.6163 255.97 81.3982 250.249 87.1865 244.664C89.497 242.17 91.565 239.886 94.084 237.598C94.5914 236.816 97.3381 234.141 98.1572 233.312L98.6982 232.935C99.4592 232.077 101.273 230.448 102.173 229.59C111.086 219.892 135.755 199.304 149.549 197.995C157.838 194.929 173.142 196.664 181.639 198.11C183.37 198.405 188.671 199.354 190.064 198.936L190.348 198.883C194.073 201.549 216.08 198.745 221.028 196.847C223.005 196.089 227.828 194.073 229.607 194.002L229.67 193.023L230.501 193.201C235.756 190.607 240.359 187.775 245.39 184.787L245.523 184.651C246.347 183.887 249.378 181.901 250.227 181.321L251.111 180.42L252.954 179.501L255.188 177.912L258.171 175.611L265.371 169.716C266.319 168.771 267.331 167.89 268.334 167.003C274.58 161.475 280.361 155.516 286.225 149.586L286.858 148.573L287.48 147.97C291.51 143.867 295.384 139.613 299.091 135.216ZM137.002 204.594C137.109 204.605 137.219 204.609 137.331 204.608C137.219 204.609 137.109 204.605 137.002 204.594ZM147.493 199.279H147.494H147.493Z" fill="#A8CF96"/>
<path d="M129.576 267.159C129.561 263.339 129.164 238.698 129.861 236.91C130.45 248.993 129.33 263.162 129.976 274.938C129.833 277.53 130.027 287.735 129.715 289.24C129.152 287.619 129.471 270.923 129.496 268.132C124.616 268.071 115.888 267.756 111.306 268.386C111.323 271.093 111.66 288.886 110.998 289.939C110.708 287.206 110.886 278.949 110.848 275.68C111.25 267.416 110.509 258.38 111.027 249.938C111.547 251.162 111.303 264.596 111.288 267.177C117.384 267.249 123.481 267.245 129.576 267.159Z" fill="#46524E"/>
<path fill-rule="evenodd" clip-rule="evenodd" d="M36.2921 24.089C39.1713 24.152 40.9189 24.3139 43.5997 25.4718C47.3847 27.559 50.3181 30.4672 51.5743 34.6974C52.6165 38.2826 52.1805 42.136 50.3634 45.3976C44.1204 56.709 27.4731 55.8181 23.713 43.7628C23.2479 42.8723 23.0465 41.3231 22.8536 40.2843C22.3504 31.6135 27.8541 25.4213 36.2921 24.089Z" fill="url(#paint11_linear_31_1773)"/>
<path d="M27.6914 128.37C30.2131 127.984 35.8863 128.138 38.5854 128.149L59.2161 128.256L128.731 128.276L242.489 128.27C257.153 128.311 275.202 127.884 289.545 128.463C290.157 128.891 289.806 128.77 290.685 128.618L290.164 128.604C289.049 129.248 281.516 129.126 279.769 129.148C273.59 128.814 264.739 129.077 258.353 129.078L214.275 129.185L74.0247 129.155C62.9124 129.08 51.8002 129.069 40.6882 129.124C38.7396 129.138 29.4084 129.519 28.1707 129.245L27.6914 128.37Z" fill="#373B3F"/>
<path d="M280.826 94.4808C261.333 94.7581 241.455 94.4971 221.92 94.5261L86.5609 94.5235C78.1502 94.5138 32.2006 95.5263 28.4492 94.159C29.0733 93.6417 30.6328 93.6243 31.4527 93.6254C58.2088 93.6598 85.0286 93.7438 111.779 93.7384L281.203 93.9295C281.206 95.3217 281.291 97.872 281.193 99.1701C280.57 98.1736 280.807 95.7949 280.826 94.4808Z" fill="#373B3F"/>
<path d="M250.268 163.32L250.229 164.115C195.838 163.517 140.762 164.117 86.3035 164.01L45.4135 164.053C42.2511 164.053 30.7309 164.296 28.2153 163.86L28.2939 163.506C30.2222 163.01 41.509 163.228 44.0741 163.232L78.5857 163.249L250.268 163.32Z" fill="#373B3F"/>
<path d="M28.0908 197.912C29.8313 197.476 31.8871 197.642 33.6935 197.654C70.4099 197.909 107.135 197.6 143.852 197.816C144.888 197.822 145.166 197.848 146.125 198.203C142.678 198.957 134.282 198.594 130.418 198.563L108.169 198.505L57.2857 198.491C48.6639 198.505 40.0205 198.555 31.3991 198.542C29.7531 198.54 29.3853 198.683 28.0908 197.912Z" fill="#373B3F"/>
<path d="M64.5511 268.118C59.8585 267.669 30.029 268.393 28.3066 267.604C30.6832 267.112 62.7197 266.84 65.5209 267.235L64.5511 268.118Z" fill="#373B3F"/>
<path d="M370.281 128.931L370.984 128.09C373.217 128.363 381.311 128.135 382.499 128.872L381.833 128.714L381.677 129.038C378.803 129.29 373.134 129.327 370.281 128.931Z" fill="#181B1D"/>
<path d="M23.5137 360.008C34.9243 359.515 47.372 359.957 58.8611 359.964L126.536 359.997L159.103 359.982C170.274 359.928 182.187 358.263 191.061 366.958C196.9 372.678 199.106 378.719 199.086 386.857C199.029 410.503 199.121 434.163 199.057 457.816L198.998 478.935C198.987 481.903 199.115 487.938 198.659 490.671C197.838 495.678 195.483 500.307 191.918 503.92C186.464 509.499 180.222 511.537 172.612 511.605L70.9479 511.613L39.8018 511.638C33.9118 511.656 27.138 511.939 21.3761 511.363C12.3406 510.454 1.50491 500.289 0.619095 491.21C-0.246445 482.345 0.107589 472.517 0.168767 463.594L0.200622 424.534C0.250216 416.107 0.252387 407.676 0.206775 399.248C0.139081 388.848 -1.44358 378.716 5.34318 370.068C9.79142 364.399 16.3461 360.768 23.5137 360.008Z" fill="white" fill-opacity="0.05"/>
<path d="M23.7385 361.115C31.5313 360.569 42.4666 361.05 50.4819 361.025L110.741 361.01L152.973 360.924C160.674 360.887 168.903 360.605 176.617 361.141C186.105 361.803 196.477 371.364 197.739 380.83C198.516 386.665 198.173 394.188 198.182 400.146L198.164 435.647L198.141 470.703C198.135 475.92 198.085 481.151 198.065 486.363C198.014 499.696 188.488 508.93 175.513 510.842C163.079 511.168 149.272 510.921 136.765 510.889L75.4316 510.827L41.2835 510.882C28.1535 510.907 15.9509 512.898 6.70831 501.48C0.999223 494.429 1.05823 488.959 1.1357 480.289C1.17443 475.949 1.12302 471.402 1.15778 467.054C1.26529 455.908 1.28918 444.762 1.22945 433.617L1.22221 401.659C1.20448 395.404 0.797952 387.798 1.62403 381.699C3.14262 370.484 12.5951 362.386 23.7385 361.115Z" fill="url(#paint12_linear_31_1773)"/>
<path d="M62.5012 385.858C90.2187 383.642 114.456 404.381 116.553 432.107C118.651 459.832 97.8091 483.981 70.0742 485.961C42.5058 487.931 18.5339 467.239 16.4491 439.68C14.364 412.121 34.9509 388.062 62.5012 385.858Z" fill="#181B1D"/>
<path d="M61.5531 391.364C86.1853 388.635 108.351 406.431 111.01 431.072C113.669 455.709 95.812 477.828 71.1646 480.416C46.6149 482.997 24.6064 465.226 21.9577 440.683C19.3086 416.139 37.0183 394.083 61.5531 391.364Z" fill="url(#paint13_linear_31_1773)"/>
<path d="M60.9975 397.156C82.3421 394.104 102.129 408.907 105.231 430.243C108.334 451.579 93.5796 471.402 72.2499 474.555C50.8489 477.715 30.9458 462.902 27.8334 441.494C24.7209 420.085 39.5817 400.219 60.9975 397.156Z" fill="#181B1D"/>
<path d="M63.4214 402.119C73.5042 401.334 85.1327 405.153 91.4296 413.395C96.6594 418.329 100.053 427.597 100.266 434.746C100.595 443.673 97.3715 452.365 91.3011 458.913C85.1243 465.563 76.5308 469.444 67.4591 469.683C65.1333 469.748 63.0815 469.65 60.8005 469.234C51.7944 468.39 39.4375 459.496 36.358 450.898C34.6957 448.151 33.3364 443.438 32.973 440.27C30.7666 421.037 44.5367 404.447 63.4214 402.119Z" fill="#181B1D"/>
<path d="M67.9206 408.081C61.3108 409.384 63.2931 398.944 69.5159 405.189C69.0142 406.173 68.5476 407.176 67.9206 408.081Z" fill="#EBF9EC"/>
<path fill-rule="evenodd" clip-rule="evenodd" d="M63.4209 402.119C73.5036 401.333 85.1328 405.152 91.4297 413.395C96.6594 418.329 100.053 427.596 100.266 434.745C100.595 443.672 97.371 452.364 91.3008 458.912C85.1241 465.562 76.5306 469.443 67.459 469.682C65.1334 469.747 63.0815 469.65 60.8008 469.234C61.1795 469.194 61.5353 469.177 61.878 469.173C61.5351 469.177 61.1788 469.194 60.7999 469.234C51.7938 468.39 39.4372 459.496 36.3575 450.899C36.2535 450.727 36.1503 450.547 36.0489 450.361C35.6436 449.616 35.2604 448.762 34.9092 447.854C34.8214 447.627 34.735 447.396 34.6514 447.163C34.1498 445.765 33.7277 444.276 33.4209 442.88C33.2165 441.95 33.0636 441.062 32.9727 440.27C32.6625 437.565 32.6676 434.913 32.959 432.345C33.0238 431.774 33.1027 431.208 33.1954 430.646C33.3806 429.522 33.6213 428.417 33.9141 427.332C34.0606 426.79 34.2203 426.253 34.3926 425.721C35.4266 422.532 36.9209 419.544 38.8038 416.834C39.1177 416.383 39.4422 415.938 39.7774 415.502C41.1177 413.759 42.6255 412.145 44.2793 410.683C44.6928 410.318 45.1156 409.962 45.5469 409.616C46.6255 408.75 47.759 407.946 48.9424 407.209C51.0726 405.883 53.3641 404.774 55.7872 403.914C56.0563 403.819 56.3273 403.727 56.5997 403.638C57.4172 403.37 58.2489 403.131 59.0938 402.92C60.2198 402.64 61.3692 402.412 62.5391 402.239C62.8317 402.195 63.1258 402.155 63.4209 402.119ZM65.5997 469.168C65.3481 469.196 65.1065 469.212 64.8721 469.222C65.1065 469.212 65.3481 469.196 65.5997 469.168ZM67.4639 468.415H67.4629H67.4639ZM75.0694 467.173C75.1048 467.212 75.1435 467.237 75.2129 467.263C75.1434 467.237 75.1048 467.212 75.0694 467.173ZM77.7129 461.74V461.741L78.0313 462.293H78.0323L77.7129 461.74ZM65.8819 409.573L65.125 409.601C64.3695 409.64 63.6192 409.71 62.876 409.813L62.1358 409.926C61.8898 409.967 61.6446 410.011 61.4004 410.059C55.0501 411.307 49.3222 414.868 45.3868 420.139C44.63 421.152 43.9526 422.211 43.3565 423.306C43.1181 423.744 42.893 424.188 42.6807 424.637C42.3622 425.311 42.0727 425.996 41.8135 426.692C41.6407 427.155 41.4811 427.623 41.335 428.095C40.1659 431.869 39.854 435.884 40.4551 439.839C40.5303 440.334 40.6199 440.827 40.7237 441.319C40.8275 441.811 40.9455 442.301 41.0782 442.789C43.9133 453.22 52.8273 460.837 63.5333 462.042L64.044 462.095L64.5225 462.135C74.5719 462.884 84.1866 457.822 89.252 449.08C94.3972 440.197 93.9091 429.131 88.001 420.737C83.2661 414.01 75.6795 409.909 67.5206 409.586C66.9768 409.565 66.4301 409.56 65.8819 409.573Z" fill="url(#paint14_linear_31_1773)"/>
<path d="M131.113 471.771C128.971 462.522 132.555 452.889 140.22 447.289C147.886 441.693 158.153 441.208 166.311 446.062C174.469 450.913 178.943 460.165 177.681 469.574C176.158 480.919 166.745 489.553 155.312 490.092C143.88 490.631 133.696 482.921 131.113 471.771Z" fill="url(#paint15_linear_31_1773)"/>
<path d="M140.516 447.693C148.019 442.215 158.07 441.74 166.056 446.492C174.042 451.24 178.422 460.298 177.186 469.508C175.695 480.613 166.48 489.064 155.289 489.593C144.098 490.121 134.129 482.572 131.601 471.658C129.504 462.604 133.012 453.175 140.516 447.693Z" stroke="white" stroke-opacity="0.05"/>
<path d="M173.552 417.956C166.546 427.882 153.146 430.858 142.598 424.831C132.049 418.807 127.807 405.753 132.798 394.676C137.789 383.603 150.379 378.133 161.88 382.043C173.382 385.952 180.028 397.963 177.233 409.786C176.54 412.718 175.29 415.495 173.552 417.956Z" fill="url(#paint16_linear_31_1773)"/>
<path d="M133.254 394.881C138.139 384.043 150.462 378.69 161.72 382.516C172.977 386.343 179.483 398.099 176.747 409.672C176.068 412.541 174.845 415.259 173.144 417.668L173.143 417.669C166.393 427.232 153.579 430.203 143.332 424.667L142.846 424.397C132.521 418.501 128.369 405.724 133.254 394.881Z" stroke="white" stroke-opacity="0.05"/>
<path d="M235.024 360.098C245.461 359.631 258.267 359.979 268.881 359.99L328.33 359.982L366.716 359.99C372.023 359.979 383.05 359.667 387.958 360.207C392.215 360.699 396.273 362.285 399.734 364.808C413.132 374.462 410.304 389.199 410.243 403.759L410.221 442.623L410.406 473.259C410.435 486.284 411.615 499.399 398.887 507.511C395.325 509.781 391.973 510.838 387.813 511.439C382.003 512.007 368.226 511.566 361.63 511.569L307.167 511.587L258.559 511.642C251.779 511.656 244.974 511.707 238.201 511.682C231.621 511.656 227.344 510.415 222.001 506.577C209.797 497.821 211.537 485.01 211.604 471.905L211.689 442.058L211.639 402.655C211.634 397.71 211.35 386.701 211.971 382.14C212.597 377.735 214.362 373.572 217.09 370.057C221.671 364.124 227.683 361.05 235.024 360.098Z" fill="white" fill-opacity="0.05"/>
<path d="M235.155 361.137C244.947 360.685 255.264 361.014 265.076 361.003L323.613 360.949L364.407 360.858C374.246 360.822 389.153 359.088 397.656 364.511C410.851 372.92 409.577 384.569 409.599 398.13L409.534 431.988L409.61 470.146C409.628 476.104 410.069 484 409.396 489.821C408.075 501.223 397.584 509.34 387.072 510.972L278.958 510.892L251.46 510.874C241.008 510.947 232.131 512.692 223.313 506.263C210.655 497.035 212.478 485.705 212.492 471.938L212.616 438.666L212.629 403.071C212.617 398.195 212.305 387.096 212.928 382.611C213.52 378.263 215.253 374.155 217.951 370.698C222.385 365.021 228.061 361.999 235.155 361.137Z" fill="url(#paint17_linear_31_1773)"/>
<path d="M388.603 475.855C386.47 482.595 378.677 489.487 371.755 490.975C366.749 492.054 359.954 491.735 354.741 491.725L334.411 491.721L259.424 491.75C251.229 491.692 245.166 490.414 239.217 484.289C234.49 479.388 231.916 472.803 232.065 465.997C232.26 458.786 235.36 453.121 240.538 448.223C249.292 439.944 258.869 441.718 269.951 441.62C275.136 441.573 281.227 441.497 286.359 441.718C287.93 441.848 289.115 441.79 290.454 442.576C287.434 442.989 284.185 442.464 281.398 442.797C272.93 443.81 261.566 441.841 253.42 442.862C250.822 443.202 248.309 444.017 246.006 445.269C243.169 446.826 240.451 449.921 238.157 452.281C233.586 457.432 232.132 463.851 233.442 470.54L233.522 470.935C232.336 477.306 245.153 489.4 252.053 490.074C262.834 491.127 273.514 490.421 284.378 490.541C303.924 490.823 323.472 490.906 343.016 490.787H359.509C368.005 490.787 372.07 491.576 379.397 486.313C381.866 484.557 384.031 482.403 385.797 479.938C386.735 478.635 387.52 476.629 388.603 475.855Z" fill="#ABF48F"/>
<path d="M286.358 441.718C303.268 441.247 320.395 441.921 337.325 441.624C345.937 441.472 354.622 441.711 363.234 441.624C371.208 441.548 376.642 442.822 382.622 448.415C387.495 452.9 390.351 459.163 390.546 465.78C390.59 468.072 390.13 471.804 389.355 473.947C388.892 471.775 390.329 465.983 389.207 461.472C387.864 454.917 384.258 450.305 378.857 446.652C370.528 441.019 362.575 442.551 352.906 442.529L315.519 442.507C310.009 442.511 304.496 442.478 298.986 442.41C297.013 442.391 292.199 442.2 290.454 442.576C289.115 441.79 287.93 441.848 286.358 441.718Z" fill="#A2EEB3"/>
<mask id="path-67-inside-1_31_1773" fill="white">
<path fill-rule="evenodd" clip-rule="evenodd" d="M240.538 448.223C249.292 439.944 258.869 441.718 269.951 441.62C275.136 441.573 281.227 441.497 286.359 441.718C303.269 441.247 320.395 441.921 337.326 441.624C345.937 441.472 354.622 441.711 363.234 441.624C371.208 441.548 376.642 442.822 382.622 448.415C387.495 452.9 390.351 459.163 390.546 465.78C390.59 468.072 390.13 471.803 389.356 473.946C389.153 474.67 389.063 475.264 388.603 475.855C386.471 482.595 378.677 489.487 371.755 490.975C366.749 492.053 359.954 491.736 354.742 491.725L334.411 491.721L259.423 491.75C251.229 491.692 245.165 490.414 239.217 484.289C234.49 479.388 231.915 472.803 232.065 465.997C232.26 458.786 235.36 453.121 240.538 448.223Z"/>
</mask>
<path fill-rule="evenodd" clip-rule="evenodd" d="M240.538 448.223C249.292 439.944 258.869 441.718 269.951 441.62C275.136 441.573 281.227 441.497 286.359 441.718C303.269 441.247 320.395 441.921 337.326 441.624C345.937 441.472 354.622 441.711 363.234 441.624C371.208 441.548 376.642 442.822 382.622 448.415C387.495 452.9 390.351 459.163 390.546 465.78C390.59 468.072 390.13 471.803 389.356 473.946C389.153 474.67 389.063 475.264 388.603 475.855C386.471 482.595 378.677 489.487 371.755 490.975C366.749 492.053 359.954 491.736 354.742 491.725L334.411 491.721L259.423 491.75C251.229 491.692 245.165 490.414 239.217 484.289C234.49 479.388 231.915 472.803 232.065 465.997C232.26 458.786 235.36 453.121 240.538 448.223Z" fill="url(#paint18_linear_31_1773)"/>
<path d="M240.538 448.223L239.851 447.496L239.851 447.496L240.538 448.223ZM269.951 441.62L269.96 442.62L269.961 442.62L269.951 441.62ZM286.359 441.718L286.316 442.717L286.351 442.718L286.387 442.717L286.359 441.718ZM337.326 441.624L337.343 442.624L337.343 442.624L337.326 441.624ZM363.234 441.624L363.224 440.624L363.224 440.624L363.234 441.624ZM382.622 448.415L381.939 449.145L381.945 449.151L382.622 448.415ZM390.546 465.78L391.546 465.761L391.546 465.751L390.546 465.78ZM389.356 473.946L388.415 473.606L388.403 473.641L388.393 473.677L389.356 473.946ZM388.603 475.855L387.814 475.24L387.704 475.382L387.649 475.553L388.603 475.855ZM371.755 490.975L371.545 489.997L371.545 489.997L371.755 490.975ZM354.742 491.725L354.744 490.725H354.742L354.742 491.725ZM334.411 491.721L334.412 490.721H334.411L334.411 491.721ZM259.423 491.75L259.416 492.75L259.424 492.75L259.423 491.75ZM239.217 484.289L238.497 484.983L238.5 484.986L239.217 484.289ZM232.065 465.997L231.065 465.97L231.065 465.975L232.065 465.997ZM240.538 448.223L241.226 448.949C249.617 441.013 258.64 442.72 269.96 442.62L269.951 441.62L269.943 440.62C259.099 440.716 248.967 438.875 239.851 447.496L240.538 448.223ZM269.951 441.62L269.961 442.62C275.155 442.573 281.216 442.497 286.316 442.717L286.359 441.718L286.402 440.719C281.238 440.497 275.116 440.573 269.942 440.62L269.951 441.62ZM286.359 441.718L286.387 442.717C294.821 442.483 303.314 442.533 311.826 442.606C320.333 442.678 328.862 442.773 337.343 442.624L337.326 441.624L337.308 440.624C328.859 440.772 320.359 440.678 311.843 440.606C303.332 440.533 294.806 440.482 286.331 440.718L286.359 441.718ZM337.326 441.624L337.343 442.624C346.001 442.471 354.531 442.712 363.244 442.624L363.234 441.624L363.224 440.624C354.713 440.71 345.874 440.473 337.308 440.624L337.326 441.624ZM363.234 441.624L363.243 442.624C367.182 442.586 370.411 442.884 373.367 443.845C376.309 444.801 379.038 446.432 381.939 449.145L382.622 448.415L383.305 447.685C380.226 444.805 377.249 443.003 373.985 441.943C370.735 440.887 367.261 440.586 363.224 440.624L363.234 441.624ZM382.622 448.415L381.945 449.151C386.619 453.453 389.359 459.462 389.547 465.81L390.546 465.78L391.546 465.751C391.342 458.865 388.37 452.347 383.3 447.679L382.622 448.415ZM390.546 465.78L389.546 465.799C389.588 468.006 389.137 471.609 388.415 473.606L389.356 473.946L390.296 474.286C391.124 471.997 391.591 468.137 391.546 465.761L390.546 465.78ZM389.356 473.946L388.393 473.677C388.154 474.528 388.118 474.849 387.814 475.24L388.603 475.855L389.392 476.469C390.007 475.679 390.152 474.812 390.319 474.216L389.356 473.946ZM388.603 475.855L387.649 475.553C386.653 478.704 384.299 481.968 381.309 484.638C378.32 487.308 374.792 489.299 371.545 489.997L371.755 490.975L371.965 491.952C375.639 491.163 379.47 488.963 382.641 486.13C385.812 483.298 388.421 479.746 389.556 476.156L388.603 475.855ZM371.755 490.975L371.545 489.997C366.676 491.046 360.048 490.736 354.744 490.725L354.742 491.725L354.739 492.725C359.86 492.735 366.822 493.061 371.966 491.952L371.755 490.975ZM354.742 491.725L354.742 490.725L334.412 490.721L334.411 491.721L334.411 492.721L354.741 492.725L354.742 491.725ZM334.411 491.721L334.411 490.721L259.423 490.75L259.423 491.75L259.424 492.75L334.412 492.721L334.411 491.721ZM259.423 491.75L259.43 490.75C255.375 490.721 251.932 490.39 248.794 489.346C245.674 488.308 242.806 486.549 239.934 483.592L239.217 484.289L238.5 484.986C241.577 488.154 244.715 490.097 248.162 491.244C251.592 492.384 255.277 492.721 259.416 492.75L259.423 491.75ZM239.217 484.289L239.937 483.595C235.395 478.885 232.921 472.558 233.065 466.019L232.065 465.997L231.065 465.975C230.91 473.047 233.585 479.89 238.497 484.983L239.217 484.289ZM232.065 465.997L233.064 466.024C233.251 459.132 236.198 453.705 241.226 448.949L240.538 448.223L239.851 447.496C234.523 452.536 231.269 458.441 231.065 465.97L232.065 465.997Z" fill="#4E5051" mask="url(#path-67-inside-1_31_1773)"/>
<g filter="url(#filter6_d_31_1773)">
<path d="M359.15 452.71C364.277 451.878 369.456 453.869 372.705 457.92C375.953 461.974 376.766 467.462 374.834 472.284C372.902 477.106 368.523 480.516 363.375 481.203C355.569 482.25 348.371 476.83 347.217 469.04C346.062 461.25 351.377 453.977 359.15 452.71Z" fill="white"/>
</g>
<mask id="path-70-inside-2_31_1773" fill="white">
<path fill-rule="evenodd" clip-rule="evenodd" d="M240.479 387.699C249.233 379.42 258.81 381.194 269.892 381.097C275.076 381.049 281.167 380.973 286.299 381.194C303.209 380.724 320.335 381.396 337.266 381.099C345.878 380.947 354.562 381.186 363.174 381.099C371.149 381.023 376.583 382.298 382.563 387.89C387.435 392.376 390.292 398.638 390.488 405.256C390.531 407.547 390.071 411.28 389.296 413.423C389.093 414.147 389.003 414.741 388.543 415.331C386.411 422.071 378.617 428.963 371.696 430.451C366.689 431.53 359.895 431.211 354.682 431.2L334.352 431.197L259.365 431.225C251.17 431.167 245.106 429.889 239.158 423.764C234.431 418.863 231.857 412.279 232.006 405.473C232.201 398.262 235.301 392.597 240.479 387.699Z"/>
</mask>
<path fill-rule="evenodd" clip-rule="evenodd" d="M240.479 387.699C249.233 379.42 258.81 381.194 269.892 381.097C275.076 381.049 281.167 380.973 286.299 381.194C303.209 380.724 320.335 381.396 337.266 381.099C345.878 380.947 354.562 381.186 363.174 381.099C371.149 381.023 376.583 382.298 382.563 387.89C387.435 392.376 390.292 398.638 390.488 405.256C390.531 407.547 390.071 411.28 389.296 413.423C389.093 414.147 389.003 414.741 388.543 415.331C386.411 422.071 378.617 428.963 371.696 430.451C366.689 431.53 359.895 431.211 354.682 431.2L334.352 431.197L259.365 431.225C251.17 431.167 245.106 429.889 239.158 423.764C234.431 418.863 231.857 412.279 232.006 405.473C232.201 398.262 235.301 392.597 240.479 387.699Z" fill="url(#paint19_linear_31_1773)"/>
<path fill-rule="evenodd" clip-rule="evenodd" d="M240.479 387.699L239.792 386.973L239.792 386.973L240.479 387.699ZM269.892 381.097L269.901 382.096L269.901 382.096L269.892 381.097ZM286.299 381.194L286.256 382.193L286.292 382.195L286.327 382.194L286.299 381.194ZM337.266 381.099L337.283 382.099L337.284 382.099L337.266 381.099ZM363.174 381.099L363.165 380.099L363.164 380.099L363.174 381.099ZM382.563 387.89L381.88 388.621L381.886 388.626L382.563 387.89ZM390.488 405.256L391.487 405.237L391.487 405.226L390.488 405.256ZM389.296 413.423L388.356 413.083L388.343 413.117L388.333 413.153L389.296 413.423ZM388.543 415.331L387.754 414.716L387.644 414.858L387.59 415.029L388.543 415.331ZM371.696 430.451L371.485 429.473L371.485 429.473L371.696 430.451ZM354.682 431.2L354.684 430.2H354.682L354.682 431.2ZM334.352 431.197L334.352 430.197H334.351L334.352 431.197ZM259.365 431.225L259.357 432.225L259.365 432.225L259.365 431.225ZM239.158 423.764L238.438 424.459L238.44 424.461L239.158 423.764ZM232.006 405.473L231.007 405.446L231.006 405.452L232.006 405.473ZM240.479 387.699L241.166 388.426C249.558 380.489 258.58 382.196 269.901 382.096L269.892 381.097L269.883 380.097C259.039 380.192 248.908 378.351 239.792 386.973L240.479 387.699ZM269.892 381.097L269.901 382.096C275.096 382.049 281.157 381.974 286.256 382.193L286.299 381.194L286.342 380.195C281.178 379.973 275.056 380.05 269.883 380.097L269.892 381.097ZM286.299 381.194L286.327 382.194C294.762 381.959 303.254 382.009 311.766 382.082C320.273 382.154 328.802 382.248 337.283 382.099L337.266 381.099L337.248 380.1C328.799 380.248 320.3 380.154 311.783 380.082C303.272 380.009 294.747 379.959 286.271 380.195L286.299 381.194ZM337.266 381.099L337.284 382.099C345.941 381.946 354.471 382.187 363.184 382.099L363.174 381.099L363.164 380.099C354.653 380.185 345.814 379.948 337.248 380.1L337.266 381.099ZM363.174 381.099L363.184 382.099C367.122 382.062 370.352 382.36 373.307 383.32C376.249 384.276 378.979 385.908 381.88 388.621L382.563 387.89L383.246 387.16C380.167 384.28 377.189 382.479 373.925 381.418C370.676 380.362 367.201 380.061 363.165 380.099L363.174 381.099ZM382.563 387.89L381.886 388.626C386.56 392.929 389.3 398.937 389.488 405.285L390.488 405.256L391.487 405.226C391.284 398.34 388.311 391.822 383.24 387.155L382.563 387.89ZM390.488 405.256L389.488 405.275C389.53 407.482 389.078 411.086 388.356 413.083L389.296 413.423L390.237 413.763C391.064 411.474 391.532 407.613 391.487 405.237L390.488 405.256ZM389.296 413.423L388.333 413.153C388.095 414.005 388.059 414.326 387.754 414.716L388.543 415.331L389.332 415.945C389.947 415.156 390.092 414.289 390.259 413.692L389.296 413.423ZM388.543 415.331L387.59 415.029C386.593 418.18 384.239 421.444 381.249 424.115C378.26 426.785 374.733 428.775 371.485 429.473L371.696 430.451L371.906 431.429C375.58 430.639 379.41 428.439 382.581 425.606C385.752 422.774 388.361 419.222 389.497 415.633L388.543 415.331ZM371.696 430.451L371.485 429.473C366.616 430.522 359.989 430.211 354.684 430.2L354.682 431.2L354.68 432.2C359.8 432.211 366.762 432.537 371.906 431.429L371.696 430.451ZM354.682 431.2L354.682 430.2L334.352 430.197L334.352 431.197L334.352 432.197L354.682 432.2L354.682 431.2ZM334.352 431.197L334.351 430.197L259.364 430.225L259.365 431.225L259.365 432.225L334.352 432.197L334.352 431.197ZM259.365 431.225L259.372 430.225C255.316 430.197 251.873 429.865 248.734 428.821C245.614 427.783 242.746 426.024 239.875 423.068L239.158 423.764L238.44 424.461C241.517 427.63 244.655 429.572 248.103 430.719C251.533 431.86 255.219 432.196 259.357 432.225L259.365 431.225ZM239.158 423.764L239.877 423.07C235.336 418.361 232.862 412.034 233.006 405.495L232.006 405.473L231.006 405.452C230.851 412.523 233.526 419.365 238.438 424.459L239.158 423.764ZM232.006 405.473L233.006 405.501C233.192 398.608 236.139 393.181 241.166 388.426L240.479 387.699L239.792 386.973C234.463 392.013 231.21 397.917 231.007 405.446L232.006 405.473Z" fill="#4E5051" mask="url(#path-70-inside-2_31_1773)"/>
<g filter="url(#filter7_d_31_1773)">
<path d="M359.091 392.187C364.218 391.354 369.397 393.345 372.646 397.396C375.893 401.45 376.707 406.938 374.775 411.76C372.843 416.582 368.464 419.992 363.315 420.68C355.51 421.726 348.312 416.307 347.158 408.516C346.003 400.726 351.318 393.454 359.091 392.187Z" fill="white"/>
</g>
<path d="M101 235C103.533 235.681 106.658 238.698 107.92 240.885C109.559 243.661 110.616 246.742 111.028 249.938C110.51 258.38 111.25 267.416 110.849 275.68C109.673 271.894 110.797 266.934 110.02 264.806C109.153 253.117 112.663 244.758 102.499 236.262C101.919 235.781 101.108 235.72 101 235Z" fill="#9BBEA0"/>
<rect x="281" y="45.7294" width="102" height="102" rx="51" fill="white" fill-opacity="0.08"/>
<rect x="281.5" y="46.2294" width="101" height="101" rx="50.5" stroke="white" stroke-opacity="0.2"/>
<path d="M298.424 99.1257V95.4355H311.935V99.1257H298.424ZM303.305 90.1762H307.083V104.327H303.305V90.1762ZM320.724 107.32C319.31 107.32 318.012 107.077 316.83 106.593C315.649 106.09 314.651 105.373 313.838 104.443L316.772 101.508C317.14 102.051 317.673 102.496 318.37 102.845C319.087 103.174 319.843 103.339 320.637 103.339C321.354 103.339 321.973 103.213 322.496 102.961C323.02 102.709 323.426 102.351 323.717 101.886C324.027 101.421 324.182 100.869 324.182 100.23C324.182 99.5906 324.027 99.0482 323.717 98.6026C323.426 98.1377 322.99 97.7794 322.409 97.5275C321.848 97.2757 321.17 97.1498 320.375 97.1498C320.007 97.1498 319.62 97.1789 319.213 97.237C318.826 97.2757 318.496 97.3435 318.225 97.4404L320.23 94.9125C320.772 94.7575 321.286 94.6316 321.77 94.5347C322.274 94.4185 322.739 94.3604 323.165 94.3604C324.211 94.3604 325.15 94.6122 325.983 95.1158C326.816 95.6001 327.475 96.2975 327.959 97.2079C328.463 98.099 328.715 99.1644 328.715 100.404C328.715 101.76 328.376 102.961 327.698 104.007C327.039 105.053 326.109 105.867 324.908 106.448C323.727 107.029 322.332 107.32 320.724 107.32ZM318.225 97.4404V94.9125L323.223 89.043L328.337 89.014L323.136 94.9415L318.225 97.4404ZM315.116 90.3506V86.486H328.337V89.014L324.763 90.3506H315.116ZM336.984 107.32C335.57 107.32 334.243 107.077 333.003 106.593C331.783 106.09 330.766 105.373 329.952 104.443L332.916 101.508C333.284 102.051 333.817 102.496 334.514 102.845C335.231 103.174 336.006 103.339 336.839 103.339C337.575 103.339 338.214 103.213 338.756 102.961C339.299 102.69 339.725 102.312 340.035 101.828C340.345 101.324 340.5 100.743 340.5 100.085C340.5 99.4065 340.345 98.8254 340.035 98.3411C339.725 97.8569 339.289 97.4888 338.727 97.237C338.185 96.9658 337.565 96.8302 336.868 96.8302C336.17 96.8302 335.531 96.927 334.95 97.1208C334.369 97.2951 333.836 97.5663 333.352 97.9343L333.73 95.0287C334.175 94.68 334.601 94.3991 335.008 94.186C335.415 93.9536 335.86 93.7792 336.345 93.663C336.829 93.5468 337.4 93.4887 338.059 93.4887C339.57 93.4887 340.839 93.7986 341.865 94.4185C342.911 95.0384 343.696 95.8616 344.219 96.8883C344.761 97.915 345.033 99.0482 345.033 100.288C345.033 101.644 344.694 102.855 344.016 103.92C343.357 104.985 342.427 105.818 341.226 106.419C340.025 107.019 338.611 107.32 336.984 107.32ZM333.352 97.9343L331.376 96.1038L332.364 86.486H336.49L335.415 96.0166L333.352 97.9343ZM332.974 90.3506L332.364 86.486H343.899V90.3506H332.974ZM347.635 107L359.926 86.486H363.994L351.703 107H347.635ZM360.478 107.291C359.684 107.291 358.958 107.097 358.299 106.709C357.66 106.322 357.146 105.809 356.759 105.169C356.372 104.511 356.178 103.784 356.178 102.99C356.178 102.177 356.372 101.46 356.759 100.84C357.146 100.201 357.66 99.6874 358.299 99.3C358.938 98.9126 359.655 98.7189 360.449 98.7189C361.282 98.7189 362.018 98.9126 362.657 99.3C363.316 99.6874 363.839 100.201 364.227 100.84C364.614 101.46 364.808 102.177 364.808 102.99C364.808 103.784 364.614 104.511 364.227 105.169C363.839 105.828 363.316 106.351 362.657 106.738C362.018 107.107 361.292 107.291 360.478 107.291ZM360.478 104.269C360.846 104.269 361.147 104.152 361.379 103.92C361.611 103.688 361.728 103.378 361.728 102.99C361.728 102.642 361.611 102.351 361.379 102.118C361.147 101.867 360.846 101.741 360.478 101.741C360.13 101.741 359.839 101.867 359.607 102.118C359.374 102.351 359.258 102.642 359.258 102.99C359.258 103.378 359.374 103.688 359.607 103.92C359.839 104.152 360.13 104.269 360.478 104.269ZM351.122 94.7381C350.328 94.7381 349.601 94.5541 348.943 94.186C348.304 93.7986 347.79 93.2853 347.403 92.646C347.015 91.9874 346.822 91.2513 346.822 90.4377C346.822 89.6435 347.015 88.9268 347.403 88.2875C347.79 87.6483 348.304 87.1447 348.943 86.7766C349.582 86.3892 350.299 86.1955 351.093 86.1955C351.926 86.1955 352.662 86.3892 353.301 86.7766C353.96 87.1447 354.483 87.6483 354.87 88.2875C355.258 88.9268 355.451 89.6435 355.451 90.4377C355.451 91.2513 355.258 91.9874 354.87 92.646C354.483 93.2853 353.96 93.7986 353.301 94.186C352.662 94.5541 351.936 94.7381 351.122 94.7381ZM351.122 91.7162C351.49 91.7162 351.79 91.6 352.023 91.3675C352.255 91.1351 352.371 90.8348 352.371 90.4668C352.371 90.0987 352.255 89.7985 352.023 89.566C351.79 89.3336 351.49 89.2174 351.122 89.2174C350.773 89.2174 350.483 89.3336 350.25 89.566C350.018 89.7985 349.902 90.0987 349.902 90.4668C349.902 90.8348 350.018 91.1351 350.25 91.3675C350.483 91.6 350.773 91.7162 351.122 91.7162Z" fill="white"/>
<defs>
<filter id="filter0_d_31_1773" x="223.429" y="44.8727" width="165.117" height="274.068" filterUnits="userSpaceOnUse" color-interpolation-filters="sRGB">
<feFlood flood-opacity="0" result="BackgroundImageFix"/>
<feColorMatrix in="SourceAlpha" type="matrix" values="0 0 0 0 0 0 0 0 0 0 0 0 0 0 0 0 0 0 127 0" result="hardAlpha"/>
<feOffset dy="4"/>
<feGaussianBlur stdDeviation="3"/>
<feComposite in2="hardAlpha" operator="out"/>
<feColorMatrix type="matrix" values="0 0 0 0 0.764706 0 0 0 0 0.952941 0 0 0 0 0.631373 0 0 0 0.2 0"/>
<feBlend mode="normal" in2="BackgroundImageFix" result="effect1_dropShadow_31_1773"/>
<feBlend mode="normal" in="SourceGraphic" in2="effect1_dropShadow_31_1773" result="shape"/>
</filter>
<filter id="filter1_d_31_1773" x="96.1724" y="173.747" width="141.735" height="144.419" filterUnits="userSpaceOnUse" color-interpolation-filters="sRGB">
<feFlood flood-opacity="0" result="BackgroundImageFix"/>
<feColorMatrix in="SourceAlpha" type="matrix" values="0 0 0 0 0 0 0 0 0 0 0 0 0 0 0 0 0 0 127 0" result="hardAlpha"/>
<feOffset dy="4"/>
<feGaussianBlur stdDeviation="3"/>
<feComposite in2="hardAlpha" operator="out"/>
<feColorMatrix type="matrix" values="0 0 0 0 0.764706 0 0 0 0 0.952941 0 0 0 0 0.631373 0 0 0 0.2 0"/>
<feBlend mode="normal" in2="BackgroundImageFix" result="effect1_dropShadow_31_1773"/>
<feBlend mode="normal" in="SourceGraphic" in2="effect1_dropShadow_31_1773" result="shape"/>
</filter>
<filter id="filter2_d_31_1773" x="183.023" y="194.866" width="54.3164" height="123.3" filterUnits="userSpaceOnUse" color-interpolation-filters="sRGB">
<feFlood flood-opacity="0" result="BackgroundImageFix"/>
<feColorMatrix in="SourceAlpha" type="matrix" values="0 0 0 0 0 0 0 0 0 0 0 0 0 0 0 0 0 0 127 0" result="hardAlpha"/>
<feOffset dy="4"/>
<feGaussianBlur stdDeviation="3"/>
<feComposite in2="hardAlpha" operator="out"/>
<feColorMatrix type="matrix" values="0 0 0 0 0.764706 0 0 0 0 0.952941 0 0 0 0 0.631373 0 0 0 0.2 0"/>
<feBlend mode="normal" in2="BackgroundImageFix" result="effect1_dropShadow_31_1773"/>
<feBlend mode="normal" in="SourceGraphic" in2="effect1_dropShadow_31_1773" result="shape"/>
</filter>
<filter id="filter3_d_31_1773" x="184.018" y="173.747" width="52.4824" height="36.2314" filterUnits="userSpaceOnUse" color-interpolation-filters="sRGB">
<feFlood flood-opacity="0" result="BackgroundImageFix"/>
<feColorMatrix in="SourceAlpha" type="matrix" values="0 0 0 0 0 0 0 0 0 0 0 0 0 0 0 0 0 0 127 0" result="hardAlpha"/>
<feOffset dy="4"/>
<feGaussianBlur stdDeviation="3"/>
<feComposite in2="hardAlpha" operator="out"/>
<feColorMatrix type="matrix" values="0 0 0 0 0.764706 0 0 0 0 0.952941 0 0 0 0 0.631373 0 0 0 0.2 0"/>
<feBlend mode="normal" in2="BackgroundImageFix" result="effect1_dropShadow_31_1773"/>
<feBlend mode="normal" in="SourceGraphic" in2="effect1_dropShadow_31_1773" result="shape"/>
</filter>
<filter id="filter4_d_31_1773" x="123.769" y="214.939" width="53.5205" height="84.5043" filterUnits="userSpaceOnUse" color-interpolation-filters="sRGB">
<feFlood flood-opacity="0" result="BackgroundImageFix"/>
<feColorMatrix in="SourceAlpha" type="matrix" values="0 0 0 0 0 0 0 0 0 0 0 0 0 0 0 0 0 0 127 0" result="hardAlpha"/>
<feOffset dy="4"/>
<feGaussianBlur stdDeviation="3"/>
<feComposite in2="hardAlpha" operator="out"/>
<feColorMatrix type="matrix" values="0 0 0 0 0.764706 0 0 0 0 0.952941 0 0 0 0 0.631373 0 0 0 0.2 0"/>
<feBlend mode="normal" in2="BackgroundImageFix" result="effect1_dropShadow_31_1773"/>
<feBlend mode="normal" in="SourceGraphic" in2="effect1_dropShadow_31_1773" result="shape"/>
</filter>
<filter id="filter5_d_31_1773" x="47.9727" y="227.254" width="69.0547" height="90.9324" filterUnits="userSpaceOnUse" color-interpolation-filters="sRGB">
<feFlood flood-opacity="0" result="BackgroundImageFix"/>
<feColorMatrix in="SourceAlpha" type="matrix" values="0 0 0 0 0 0 0 0 0 0 0 0 0 0 0 0 0 0 127 0" result="hardAlpha"/>
<feOffset dy="4"/>
<feGaussianBlur stdDeviation="3"/>
<feComposite in2="hardAlpha" operator="out"/>
<feColorMatrix type="matrix" values="0 0 0 0 0.764706 0 0 0 0 0.952941 0 0 0 0 0.631373 0 0 0 0.2 0"/>
<feBlend mode="normal" in2="BackgroundImageFix" result="effect1_dropShadow_31_1773"/>
<feBlend mode="normal" in="SourceGraphic" in2="effect1_dropShadow_31_1773" result="shape"/>
</filter>
<filter id="filter6_d_31_1773" x="339.059" y="444.524" width="44.8086" height="44.8088" filterUnits="userSpaceOnUse" color-interpolation-filters="sRGB">
<feFlood flood-opacity="0" result="BackgroundImageFix"/>
<feColorMatrix in="SourceAlpha" type="matrix" values="0 0 0 0 0 0 0 0 0 0 0 0 0 0 0 0 0 0 127 0" result="hardAlpha"/>
<feOffset/>
<feGaussianBlur stdDeviation="4"/>
<feComposite in2="hardAlpha" operator="out"/>
<feColorMatrix type="matrix" values="0 0 0 0 1 0 0 0 0 1 0 0 0 0 1 0 0 0 0.25 0"/>
<feBlend mode="normal" in2="BackgroundImageFix" result="effect1_dropShadow_31_1773"/>
<feBlend mode="normal" in="SourceGraphic" in2="effect1_dropShadow_31_1773" result="shape"/>
</filter>
<filter id="filter7_d_31_1773" x="339" y="384" width="44.8086" height="44.8088" filterUnits="userSpaceOnUse" color-interpolation-filters="sRGB">
<feFlood flood-opacity="0" result="BackgroundImageFix"/>
<feColorMatrix in="SourceAlpha" type="matrix" values="0 0 0 0 0 0 0 0 0 0 0 0 0 0 0 0 0 0 127 0" result="hardAlpha"/>
<feOffset/>
<feGaussianBlur stdDeviation="4"/>
<feComposite in2="hardAlpha" operator="out"/>
<feColorMatrix type="matrix" values="0 0 0 0 1 0 0 0 0 1 0 0 0 0 1 0 0 0 0.25 0"/>
<feBlend mode="normal" in2="BackgroundImageFix" result="effect1_dropShadow_31_1773"/>
<feBlend mode="normal" in="SourceGraphic" in2="effect1_dropShadow_31_1773" result="shape"/>
</filter>
<linearGradient id="paint0_linear_31_1773" x1="406.782" y1="331.866" x2="3.37827" y2="15.3377" gradientUnits="userSpaceOnUse">
<stop stop-color="#141615"/>
<stop offset="1" stop-color="#1D1D1E"/>
</linearGradient>
<linearGradient id="paint1_linear_31_1773" x1="317.003" y1="141.997" x2="342.39" y2="293.06" gradientUnits="userSpaceOnUse">
<stop stop-color="#55927A"/>
<stop offset="1" stop-color="#CFFFA7"/>
</linearGradient>
<linearGradient id="paint2_linear_31_1773" x1="252.834" y1="173.032" x2="290.396" y2="282.833" gradientUnits="userSpaceOnUse">
<stop stop-color="#609278"/>
<stop offset="1" stop-color="#CBFAA4"/>
</linearGradient>
<linearGradient id="paint3_linear_31_1773" x1="265.746" y1="141.351" x2="270.299" y2="176.536" gradientUnits="userSpaceOnUse">
<stop stop-color="#566D61"/>
<stop offset="1" stop-color="#668E7A"/>
</linearGradient>
<linearGradient id="paint4_linear_31_1773" x1="144.704" y1="219.12" x2="152.857" y2="259.191" gradientUnits="userSpaceOnUse">
<stop stop-color="#688972"/>
<stop offset="1" stop-color="#95C98F"/>
</linearGradient>
<linearGradient id="paint5_linear_31_1773" x1="200.496" y1="201.705" x2="219.794" y2="269.798" gradientUnits="userSpaceOnUse">
<stop stop-color="#669377"/>
<stop offset="1" stop-color="#B4E99B"/>
</linearGradient>
<linearGradient id="paint6_linear_31_1773" x1="208.171" y1="267.333" x2="216.78" y2="306.273" gradientUnits="userSpaceOnUse">
<stop stop-color="#B2E499"/>
<stop offset="1" stop-color="#E3FAA6"/>
</linearGradient>
<linearGradient id="paint7_linear_31_1773" x1="205.451" y1="177.679" x2="211.008" y2="198.409" gradientUnits="userSpaceOnUse">
<stop stop-color="#607869"/>
<stop offset="1" stop-color="#698F75"/>
</linearGradient>
<linearGradient id="paint8_linear_31_1773" x1="144.426" y1="239.042" x2="156.361" y2="306.486" gradientUnits="userSpaceOnUse">
<stop stop-color="#77B784"/>
<stop offset="1" stop-color="#E1FDA9"/>
</linearGradient>
<linearGradient id="paint9_linear_31_1773" x1="88.621" y1="268.169" x2="95.486" y2="306.621" gradientUnits="userSpaceOnUse">
<stop stop-color="#99D090"/>
<stop offset="1" stop-color="#DEFBAA"/>
</linearGradient>
<linearGradient id="paint10_linear_31_1773" x1="85.5759" y1="231.104" x2="79.6087" y2="261.747" gradientUnits="userSpaceOnUse">
<stop stop-color="#627F6D"/>
<stop offset="1" stop-color="#7CAF86"/>
</linearGradient>
<linearGradient id="paint11_linear_31_1773" x1="22.6365" y1="39.8548" x2="54.0878" y2="39.8548" gradientUnits="userSpaceOnUse">
<stop stop-color="#FFA47A"/>
<stop offset="1" stop-color="#A8CF96"/>
</linearGradient>
<linearGradient id="paint12_linear_31_1773" x1="175.105" y1="516.952" x2="23.8711" y2="354.371" gradientUnits="userSpaceOnUse">
<stop stop-color="#1C1C1D"/>
<stop offset="1" stop-color="#2B2B2B"/>
</linearGradient>
<linearGradient id="paint13_linear_31_1773" x1="97.3671" y1="467.105" x2="35.364" y2="404.566" gradientUnits="userSpaceOnUse">
<stop stop-color="#30353A"/>
<stop offset="1" stop-color="#4C525A"/>
</linearGradient>
<linearGradient id="paint14_linear_31_1773" x1="32.3133" y1="438.462" x2="104.802" y2="438.462" gradientUnits="userSpaceOnUse">
<stop stop-color="#FFA47A"/>
<stop offset="1" stop-color="#A8CF96"/>
</linearGradient>
<linearGradient id="paint15_linear_31_1773" x1="172.328" y1="491.987" x2="125.429" y2="453.569" gradientUnits="userSpaceOnUse">
<stop stop-color="#1C1C1D"/>
<stop offset="1" stop-color="#2B2B2B"/>
</linearGradient>
<linearGradient id="paint16_linear_31_1773" x1="172.333" y1="429.798" x2="125.665" y2="391.57" gradientUnits="userSpaceOnUse">
<stop stop-color="#1C1C1D"/>
<stop offset="1" stop-color="#2B2B2B"/>
</linearGradient>
<linearGradient id="paint17_linear_31_1773" x1="386.596" y1="517.08" x2="234.982" y2="354.293" gradientUnits="userSpaceOnUse">
<stop stop-color="#1C1C1D"/>
<stop offset="1" stop-color="#2B2B2B"/>
</linearGradient>
<linearGradient id="paint18_linear_31_1773" x1="231.057" y1="468.583" x2="401.138" y2="468.583" gradientUnits="userSpaceOnUse">
<stop stop-color="#FFA47A"/>
<stop offset="1" stop-color="#A8CF96"/>
</linearGradient>
<linearGradient id="paint19_linear_31_1773" x1="230.998" y1="408.059" x2="401.079" y2="408.059" gradientUnits="userSpaceOnUse">
<stop stop-color="#FFA47A"/>
<stop offset="1" stop-color="#A8CF96"/>
</linearGradient>
</defs>
</svg>
