<svg width="32" height="32" viewBox="0 0 32 32" fill="none" xmlns="http://www.w3.org/2000/svg">
<path d="M32 25.625C32 25.9897 31.8468 26.3394 31.574 26.5973C31.3012 26.8551 30.9312 27 30.5455 27H13.0909C12.7051 27 12.3352 26.8551 12.0624 26.5973C11.7896 26.3394 11.6364 25.9897 11.6364 25.625C11.6364 23.437 12.5558 21.3385 14.1925 19.7914C15.8292 18.2442 18.049 17.375 20.3636 17.375H23.2727C25.5873 17.375 27.8072 18.2442 29.4438 19.7914C31.0805 21.3385 32 23.437 32 25.625ZM21.8182 5C20.6675 5 19.5426 5.32257 18.5858 5.92692C17.629 6.53126 16.8832 7.39025 16.4429 8.39524C16.0025 9.40024 15.8873 10.5061 16.1118 11.573C16.3363 12.6399 16.8904 13.6199 17.7041 14.3891C18.5178 15.1583 19.5545 15.6821 20.6831 15.8943C21.8117 16.1065 22.9816 15.9976 24.0447 15.5813C25.1078 15.1651 26.0165 14.4601 26.6558 13.5556C27.2951 12.6512 27.6364 11.5878 27.6364 10.5C27.6364 9.04131 27.0234 7.64236 25.9323 6.61091C24.8411 5.57946 23.3613 5 21.8182 5ZM8.72727 5C7.57655 5 6.45166 5.32257 5.49486 5.92692C4.53807 6.53126 3.79234 7.39025 3.35197 8.39524C2.91161 9.40024 2.79639 10.5061 3.02089 11.573C3.24538 12.6399 3.79951 13.6199 4.6132 14.3891C5.42688 15.1583 6.46359 15.6821 7.5922 15.8943C8.72082 16.1065 9.89066 15.9976 10.9538 15.5813C12.0169 15.1651 12.9256 14.4601 13.5649 13.5556C14.2042 12.6512 14.5455 11.5878 14.5455 10.5C14.5455 9.04131 13.9325 7.64236 12.8413 6.61091C11.7502 5.57946 10.2704 5 8.72727 5ZM8.72727 25.625C8.72511 24.1807 9.02612 22.7504 9.61286 21.4168C10.1996 20.0833 11.0604 18.8731 12.1455 17.8563C11.2575 17.5393 10.3164 17.3763 9.36727 17.375H8.08727C5.94358 17.3786 3.88878 18.1853 2.37295 19.6182C0.85713 21.0511 0.00384521 22.9935 0 25.02V25.625C0 25.9897 0.153246 26.3394 0.426026 26.5973C0.698807 26.8551 1.06878 27 1.45455 27H8.98909C8.81975 26.5591 8.73121 26.0941 8.72727 25.625Z" fill="#FFA47A"/>
</svg>
