<svg width="32" height="32" viewBox="0 0 32 32" fill="none" xmlns="http://www.w3.org/2000/svg">
<path d="M0 24.6719C0 24.9206 0.09875 25.1587 0.274375 25.335L2.14937 27.21C2.32562 27.3856 2.56375 27.4844 2.8125 27.4844H6.13812L6.91937 22.7969H0.625C0.279813 22.7969 0 23.0767 0 23.4219L0 24.6719Z" fill="#FFA47A"/>
<path d="M25.083 22.7969L25.8618 27.4844H29.1874C29.4361 27.4844 29.6743 27.3856 29.8505 27.21L31.7255 25.335C31.9011 25.1587 31.9999 24.9206 31.9999 24.6719V23.4219C31.9999 23.0767 31.7201 22.7969 31.3749 22.7969H25.083Z" fill="#FFA47A"/>
<path d="M31 4.48438C31 2.93375 29.7381 1.67188 28.1875 1.67188H3.8125C2.26188 1.67188 1 2.93375 1 4.48438V20.9219H7.25375C7.8275 18.7406 9.79125 17.2031 12.0875 17.2031H19.9163C22.2131 17.2031 24.1762 18.7412 24.7494 20.9219H31V4.48438ZM12.9113 12.2143C13.2774 12.5804 13.2774 13.174 12.9113 13.5401C12.5451 13.9062 11.9516 13.9062 11.5855 13.5401L9.709 11.6636C9.3425 11.2971 9.34313 10.7023 9.71012 10.3367L11.5914 8.46169C11.958 8.09612 12.5516 8.09713 12.9172 8.46387C13.2828 8.83056 13.2817 9.42419 12.915 9.78969L11.6989 11.0018L12.9113 12.2143ZM17.8088 8.96963L15.9338 13.6912C15.7436 14.1702 15.1997 14.4085 14.7164 14.2165C14.2352 14.0254 14.0001 13.4804 14.1911 12.9992L16.0661 8.27763C16.2573 7.79644 16.8021 7.56106 17.2835 7.75231C17.7647 7.94338 17.9999 8.48838 17.8088 8.96963ZM22.2899 11.6662L20.4087 13.5412C20.0429 13.9059 19.4492 13.9065 19.0829 13.539C18.7173 13.1723 18.7183 12.5787 19.0851 12.2132L20.3012 11.0011L19.0887 9.7885C18.7226 9.42237 18.7226 8.82881 19.0887 8.46269C19.4548 8.09662 20.0484 8.09662 20.4145 8.46269L22.291 10.3392C22.6575 10.7057 22.6569 11.3006 22.2899 11.6662Z" fill="#FFA47A"/>
<path d="M22.9989 21.6911C22.7485 20.1834 21.4444 19.0781 19.9161 19.0781H12.0871C10.5595 19.0781 9.25577 20.1826 9.00465 21.6894L7.96902 27.9031C7.75746 29.1725 8.73665 30.3281 10.03 30.3281H10.0771C10.8329 30.3281 11.5236 29.9016 11.8623 29.2259L13.1899 26.5781H18.8149L20.1143 29.1771C20.4671 29.8825 21.1881 30.3281 21.9768 30.3281C23.2631 30.3281 24.2418 29.1735 24.031 27.9046L22.9989 21.6911ZM13.1836 23.7656C12.6659 23.7656 12.2461 23.3459 12.2461 22.8281C12.2461 22.3104 12.6659 21.8906 13.1836 21.8906C13.7014 21.8906 14.1211 22.3104 14.1211 22.8281C14.1211 23.3459 13.7014 23.7656 13.1836 23.7656ZM18.8086 23.7656C18.2909 23.7656 17.8711 23.3459 17.8711 22.8281C17.8711 22.3104 18.2909 21.8906 18.8086 21.8906C19.3264 21.8906 19.7461 22.3104 19.7461 22.8281C19.7461 23.3459 19.3264 23.7656 18.8086 23.7656Z" fill="#FFA47A"/>
</svg>
